<?xml version="1.0" encoding="UTF-8"?>
<!-- Karnataka districts from Wikimedia India_Karnataka_locator_map.svg (CC BY-SA 3.0, PlaneMad). Filled paths, no labels. -->
<svg xmlns="http://www.w3.org/2000/svg" viewBox="-138 602 255 392" role="img" aria-label="Karnataka map">
	<defs>
		<linearGradient id="ksMapSheen" x1="0%" y1="0%" x2="100%" y2="100%">
			<stop offset="0%" stop-color="#ffffff" stop-opacity="0.12"/>
			<stop offset="50%" stop-color="#ffffff" stop-opacity="0"/>
			<stop offset="100%" stop-color="#0f172a" stop-opacity="0.04"/>
		</linearGradient>
		<filter id="ksMapShadow" x="-25%" y="-25%" width="150%" height="150%">
			<feDropShadow dx="0" dy="1.2" stdDeviation="1.4" flood-color="#0f172a" flood-opacity="0.2"/>
		</filter>
	</defs>
	<style type="text/css"><![CDATA[
		#karnataka path {
			stroke: rgba(15, 40, 28, 0.45);
			stroke-width: 0.75;
			stroke-linejoin: round;
			stroke-linecap: round;
			paint-order: fill stroke;
			filter: url(#ksMapShadow);
		}
	]]></style>
	<rect x="-138" y="602" width="255" height="392" fill="url(#ksMapSheen)" pointer-events="none"/>
	<g id="karnataka">
			<path fill="#f2c46d" d="M39.72,950.6c-0.89,0.07-1.72-0.12-2.49-0.55
				c-0.13-0.58-0.28-1.16-0.44-1.74c-0.73-0.57-3.26-0.36-4.23-0.69c0-0.04,0-0.09,0-0.13c-2.78,0.88-5.66-0.92-8.4-0.14
				c-1.62,0.46-1.21,5.3-2.72,4.92c-0.16,1.98-2.44,2.25-4.13,2.05c0.41,2.66-3.02,0.93-4.17,2.21c-2.17,2.42-6.33-0.23-5.88-3.19
				c-0.48,0.84-0.77,1.88-1.78,1.92c-0.8,3.67,4.89,3.39,4.01,7.04c-4.6,0.17-9.05-0.38-13.66,0.04c-2.5,0.23-6.98-0.08-4.67,3.18
				c2.95,4.15-4.72,2.88-5.54,4.6c-1.36,2.83-3.99,5.57-7.3,5.97c0,0.02-0.01,0.03-0.01,0.04c1.44,1.56,3.48,1.08,5.36,1.41
				c2.4,0.42,1.83,2.38,2.52,4.15c1.38-0.11,5.4-1.01,6.1,0.7c0.16,0.38,0.89,4.79,0.57,4.76c1.54,0.14,2.85-1.03,4.35-1.17
				c2-0.19,4.1,0.08,6.09,0.32c4.85,0.58,4.79-0.26,5.88-4.5c0.9-3.51,3.39-5.38,6.88-5.98c1.5-0.26,3.6-0.54,4.79,0.68
				c0.87,0.89,1.64,3.11,3.27,2.77c0.19-0.88,0.57-1.63,0.51-2.56c3.33-1.06,5.84-0.25,9.06,0.45c2.46,0.54,6.5,2.54,8.86,2.25
				c0.16-2.69,0.61-5.96,2.59-7.98c2.81-2.85,7.16-1.9,10.73-2.03c0.14-1.46-0.18-3.37,1.37-4.21c0.92-0.5,1.78-0.86,2.08-1.96
				c0.53-1.94,0.69-4.47,0.16-6.43c-1.21-4.46-11.62-1.74-14.52-4.15C42.91,952.4,41.63,951.07,39.72,950.6"/>
			<path fill="#7dbe9a" d="M-21.49,976.07c3.22-0.45,5.78-3.2,7.1-5.95
				c0.83-1.73,8.49-0.45,5.54-4.6c-2.31-3.25,2.17-2.95,4.67-3.18c4.61-0.42,9.06,0.13,13.66-0.04c0.88-3.65-4.81-3.38-4.01-7.04
				c1.01-0.04,1.3-1.08,1.78-1.92c-0.4,2.63,2.74,5.03,5.17,3.82c0.99-0.49,1.11-1.42,2.41-1.22c1.28,0.2,2.72-0.01,2.47-1.63
				c1.69,0.2,3.97-0.07,4.13-2.05c-0.65-0.16-1.29-1.5-1.58-2.64c-1.19,0.19-4.28-2.25-5.42-2.84c-2.81-1.45-0.06-5.35-0.28-7.53
				c-2.88,1.14-6.31,0.06-8.87,2.13c-2.41,1.94-2.76,3.65-5.8,2.62c-0.26-1.28-1.39-2.15-1.51-3.46c-2-1.11-4.15-2.16-5.63-3.96
				c-1.43-1.75-2.36-1.57-4.21-2.56c-1.61-0.86-0.37-2.57-0.89-3.82c-1.15-2.78-4.04-2.17-5.74-3.86c-1.21,2.12-4.6,0.97-6.52,1.04
				c-2.66,0.1-3.47,1.63-4.4,3.86c-2.8,0.1-3.9-0.81-5.91-2.56c-2.62,2.39-5.78,6-7.32,9.22c-0.27-0.04-0.65,0.08-0.93,0.06
				c-0.13,0.54-0.15,1.37-0.04,1.92c0.49,0.39,0.73,0.73,0.7,1.52c3.59,1.41,4.17,1.41,6.13,4.53c1.43,2.28,3.12,4.56,5.66,5.65
				c2.62,1.13,1.97,4.27,1.93,6.67c-0.05,3.81-1.28,4.79-4.45,6.29c0.39-0.07,0.76-0.09,1.11,0c0.07,1.71-0.12,3.47-0.06,5.19
				c1.62-0.37,4.41-0.62,5.57,0.9c0.47,0.62,0.89,3.18,1.78,3.29c0.03-0.14,0.06-0.28,0.09-0.42c1.59-0.37,2.4,1.47,3.4,2.58
				C-21.66,976.09-21.57,976.08-21.49,976.07"/>
			<path fill="#89c2e8" d="M-29.66,961.58c0.78-2.25,0.84-5.88,0.32-8.2
				c-0.39-1.76-2.6-1.96-3.81-2.98c-1.78-1.5-3.21-3.59-4.31-5.62c-1.35-2.48-2.85-2.36-5.45-3.38c0.02-0.79-0.21-1.13-0.7-1.52
				c-0.11-0.55-0.09-1.38,0.04-1.92c0.28,0.02,0.66-0.1,0.93-0.06c1.54-3.22,4.7-6.83,7.32-9.22c-1.34-1.16-2.21-1.02-4.46-1.21
				c-0.19-1.67,1.07-4.07,1.12-5.95c0.05-1.78-0.08-4.86-1.65-6.07c-1.99-1.52-3.17,0.93-3.72,2.48c-0.85,2.4,0.67,3.43,0.26,5.43
				c-2.16,0.08-3.8-0.66-5.7-1.55c-2.43-1.13-4.24,0.03-6.49-0.62c-0.11,2.81,1.4,6.97-2.42,7.74c-2.31,0.46-4.47,4.51-6.66,3.89
				c-0.45-1.05-0.87-2.94-2.03-3.49c-1.87-0.87-1.48,2.24-2.74,2.41c1.78,1.19-2.53,3.33-2.41,4.69c0.11,1.19,1.39,1.31,1.26,2.67
				c-0.09,0.94-0.26,1.95-0.12,2.89c0.34,2.32,4.07,1.22,5.51,2.31c1.78,1.35,3.89,5.09,3.54,7.38c2.73-0.19,4.41,2.69,6.21,4.24
				c1.92,1.66,7.1,0.34,7.52,3.03c1.24,8.04,8.3,6.78,14.66,5.59C-31.91,963.73-30.39,963.68-29.66,961.58"/>
			<path fill="#d4a5e8" d="M-69.14,931.45c0.52-0.64,0.4-2.89,2.05-2.12
				c1.16,0.55,1.58,2.43,2.03,3.49c2.19,0.62,4.35-3.43,6.66-3.89c3.83-0.77,2.32-4.93,2.42-7.74c-1.78-0.51-0.15-5.3-1.06-6.92
				c-2.18-3.9-2.25-7.2-1.17-11.6c-1.15-2.83-2.98-5.29-4.19-8.02c-1.38-0.12-2.81-0.06-4.19-0.18c-0.09-2.32-1.29-5.61-4.4-5.05
				c1.34,5.73-4.34,1.88-6.38,1.49c0,0.34-0.01,0.67-0.04,1.02c-1.36-0.09-1.77,1.42-2.79,1.97c-1.24,0.65-2-0.1-3.25-0.1
				c-3,0-4.32,3.85-6.25,5.52c-2.13,1.83-3.81,0.46-4.15-2.02c-0.6-4.34,0.37-3.98-4.37-4.41c-0.11-2.7,0.03-4.12-3.28-3.99
				c-2.83,0.12-5.84,0.36-8.57-0.56c-0.15,4.62-1.35,8.73-1.99,13.24c-0.75,5.28,2.13,10.09,5.02,14.26
				c3.71-0.58,7.11-0.08,10.8-0.1c3.89-0.02,4.48-3,4.66,2.11c1.68-0.67,3.57,1.85,1.69,2.63c0.11,0.97,0.98,2.02,2.14,1.73
				c0.67-2.46,1.76-2.81,3.85-1.37c2.86,1.98-0.09,2.21,0.42,4.23c1.05,0.09,2.15,0.06,3.2,0.16c0.04,0.89-0.04,1.81,0.02,2.71
				c0.29-0.62,2.83-2.87,3.5-2.88c0.05,1.24,0.17,2.89-0.29,3.97c2.17,0.56,2.27,1.92,3.19,3.8c0.36,0.13,1.06,0.14,1.42,0.03
				c0.23-1.34,1.85-1.64,2.61-1.13C-69.58,931.71-69.34,931.71-69.14,931.45"/>
			<path fill="#f28b82" d="M-103.91,889.02c4.11,0.11,5.54-0.61,5.72,3.87
				c2.88,0.26,4.97-0.58,4.44,3.2c-0.38,2.73,1.43,5.5,4.07,3.23c1.84-1.59,2.75-4.32,5.13-5.29c1.22-0.49,2.05,0.13,3.23,0.18
				c1.85,0.08,2.19-2.4,3.94-2.28c0.03-0.35,0.04-0.68,0.04-1.02c-0.83-0.16-1.45,0.09-2.18-0.55c-0.38-1.82-0.31-3.84-1.26-5.5
				c-0.98-1.71-3.02-2.47-2.5-4.78c0.8-0.04,1.64,0.02,2.44-0.01c0.16-1.85-0.19-3.92,0.42-5.7c-1.56-0.52-3.54-0.29-4.6-1.83
				c-1.55-2.26-0.68-4.99-0.98-7.51c-0.31-2.59-2.43-3.94-3.98-5.8c-2.13-2.55-1.8-5.32-1.91-8.43c-3.12-0.28-6.81-0.75-9.61-2.29
				c-3.72-2.05-2.15-6.68-5.14-8.78c-0.01,0.45-0.03,0.9-0.07,1.34c-4.3,0.16-8.17,1.02-12.52,0.96c-3.38,4.49-0.81,9.03-0.55,13.89
				c0.31,5.72-0.69,10.69,1.37,16.25c1.45,3.91,2.13,8.24,3.76,12.03C-112.77,888.63-108.11,888.91-103.91,889.02"/>
			<path fill="#9ad99a" d="M59.96,916.31c-1.9-2.7-2.6-6.13-3.08-9.35
				c-0.47-3.12-0.72-1.14,1.11-3.42c-2.44-1.73-3.46-2.48-3.46-5.53c-0.78-0.51-1.57-0.99-2.33-1.53c-2.36-0.11-3.66,0.48-5.68-1.1
				c-1.28-1-3.96-1.38-4.92,0.25c-1.08,1.82-2.44,4.75-2.65,6.86c-0.36,3.48-0.63,4.24-3.86,5.45c-0.24,1.83,0.04,3.82,0.1,5.68
				c1.75-0.02,1.75,1.39,2.05,2.68c0.35,1.5,2.4,3.06,3.18,4.57c1.6,3.08,7.9-0.6,7.5,2.34c-0.14,0.02-0.28,0.05-0.42,0.07
				c-0.09,3.67,1.21,5.29,4.42,6.69c0.01-0.33,0.02-0.66,0.05-0.97c2.7-0.1,8.74,0.9,10.21-2.25c1.18-2.52,1.24-5.47,2-8.12
				c-0.07-0.14-0.14-0.28-0.2-0.41C62.85,919.09,60.77,917.46,59.96,916.31"/>
			<path fill="#ffd166" d="M14.18,840.23c-0.32,3.46,0.09,7.72-2.33,10.65
				c-1.98,2.4-5.32,6.01-5.02,9.66c-0.92,0.63-0.46,1.78-1.91,1.49c-1.62-0.32-2.25,1.72-2.47,2.91c-2.12,2.46-6.64-1.35-7.87,3.06
				c-1.7,0.07-3.47-0.42-4.06,1.65c-1.38,0.38-3.15,0.41-4.45,0.92c-0.86,0.33-0.53,1.02-1.73,1.22c1.08,0.38,1.81,0.95,0.8,2
				c0.61,1.85,4.21-0.26,3.11,3.05c-0.88,2.67-1.82,5.89-4.06,7.75c-0.74,1.98-0.77,4.44-0.28,6.48c0.78,3.21,3.21,2.58,5.19,4.47
				c1.47,1.4,0.6,4.89,3.74,4.59c3.41-0.33,4.4,2.16,4.27,5.28c0.27,0,0.53,0,0.77-0.01c1.27-3.94,4.53-3.04,7.52-1.42
				c1.09,0.59,2.07,1.24,2.63,2.39c0.99,2.03,1.9,1.3,3.18,2.61c0.83,0.85,0.47,2.45,0.36,3.45c-0.25,2.4,0.68,4.63,1.81,6.69
				c1.56,2.85,4.99,1.59,7.66,2.11c2.96-2.86,3.12-3.54,2.84-7.71c-0.24-3.65,4.09-5.68,0.6-9.23c-2.39-2.43-4.16-6.36,0.55-7.66
				c0.7-0.19,2.92,0.12,3.29-0.69c0.51-1.12,0.58-3.1-0.89-3.56c-0.7-4.05,6.07-1.54,7.47-3.87c1.93-3.2-0.85-11.35,5.82-7.87
				c0.01-0.13,0.01-0.25,0-0.36c-0.67-0.22-1.25-0.41-1.92-0.63c0.01-2.69-0.97-6.61,0.32-9.13c1.37-2.68,6.37-2.21,8.58-3.78
				c0.02-0.15,0.07-0.28,0.16-0.32c-3.44-0.2-2.5-3.35-2.6-6.08c-2.84-0.25-7.84,0.03-10.16-1.83c-1.62-1.3-2.52-3.31-4.97-2.81
				c-0.1,1.18,0.98,7.6-0.53,7.92c-2.39,0.51-5.06-0.22-7.46-0.44c-0.29-1.77,0.54-4.01,1.16-5.65c3.91-0.38,3.65-3.83,1.58-6.26
				c-0.81-0.96-2.08-0.98-2.92-1.84c-1.23-1.24,0.13-3.29,0.08-4.71c-1.4-0.49-3.06-1.96-4.65-1.95c-0.02-0.8,0-1.63,0.06-2.43
				c4.02,0.02,7.17,2.49,8.31,6.31c1.07,3.57,5.22,1.02,5.44,5.99c1.24,0.41,2.1-0.13,2.3-1.36c4.15-0.79,7.38,0.69,9.12,4.55
				c2.16,4.79,7.69-1.71,2.74-3.19c-3.1-0.93-3.73-5.79-1.2-8.23c1.56-1.51,7.96,1.05,7.09-2.7c-1.58-0.13-2.66-1.87-3.25-3.14
				c-0.37-0.77-0.59-1.59-0.65-2.45c-0.36-1.99-1.51-1.08-2.6-2.11c-0.13,1.21,1.11,5.67,0.75,6.27c-0.66,1.11-3.46-2.58-5.13-2.68
				c0.08-1.46-0.23-2.89-0.16-4.38c-0.25,0.15-0.44,0.08-0.73,0.18c-0.5,2.24-3.62,1.21-5.09,0.92c-3.77-0.73-3.86,1.86-4.2,4.77
				c-1.05,0.04-2.13,0-3.17-0.08c-0.4-1.87-3.44-0.91-4.67-0.93c-2.54-0.05-1.9-3.02-1.8-4.67
				C17.79,835.34,14.53,836.37,14.18,840.23"/>
			<path fill="#06d6a0" d="M41.58,869c-4.47,1.2-2.74,7.21-2.75,10.65
				c0.67,0.22,1.25,0.41,1.92,0.63c0,0.11,0,0.23,0,0.36c1.89,0.99,4.97-0.75,6.35,1.16c1.83,2.54,2.57,5.17,5.02,7.47
				c0.61-0.21,1.08-0.51,1.32-1.15c1.62-0.08,3.42-0.34,4.96,0.29c2.56,1.05,0.46,3.94,2.19,5.32c1.99,1.59,5.26-0.46,7.49,0.59
				c3.04,1.43-0.59,7.18-1.26,9.11c-1.12,3.2-3.19,5.18-3.05,8.85c0.06,1.62,1.96,4.59,0.21,5.92c0.06,0.14,0.13,0.28,0.2,0.41
				c0.4-1.4,6.36-0.75,7.35,0.21c1.9,1.83,2.34,4.16,5,1.66c1.94-1.83,2.13-2.39,4.31,0.3c1.68,2.06,4.36,2.2,6.66,3.13
				c0.3-2.02,1.19-4.39,3.24-5.23c1.29-0.52,4.42-0.73,3.87-2.72c-2.3,0.11-5.84-3.38-1.89-3.64c3.47-0.23,3.91,5.1,6.59,5.11
				c3.17,0.01,0.39-6.47,0.53-7.87c0.33-3.17,2.43-3.06,5.07-3.16c-0.12-1.24-0.48-3.96,1.36-3.97c0.24-1.68,2.21-8.29,0.24-9.38
				c-2.66-1.49-6.55-0.37-9.46-0.63c-0.18-1.12-0.5-2.2-0.96-3.24c-0.23-1.56,0.07-3.48,0.17-5.03c0.09-1.42,1.29-5.79-0.4-6.76
				c-1.47-0.84-8.68-0.77-8.83,1.5c-0.35,0.09-0.85,0.09-1.2-0.03c-0.02-1.69,0.84-3.3,0.57-4.92c-0.66-0.2-1.28-0.48-1.86-0.85
				c-1.37-0.63-2.22,0.53-3.56,0.13c-1.86-1.83,0.16-1.97,1.72-1.95c0.14-2.25,1.91-8.65-0.74-9.92c-1.48-0.71-5.95-0.92-5.58,1.73
				c-0.56,0.1-1.38,0.08-1.93-0.05c-0.1-3,1.95-3.83,1.86-6.89c-0.55-0.13-1.38-0.15-1.93-0.05c-0.08,0.79-0.06,1.63-0.14,2.42
				c-0.43,0.11-1.26,0.09-1.68-0.04c0.09-2.27-4.67-1.67-6.25-1.58c0.99,0.83,0.7,2.22,0.6,3.43c-1.88,0.47-2.63,1.56-3.81,2.94
				c-1.34,1.56-3.17,1.35-5.02,1.42c0.02,0.27-0.12,0.65-0.1,0.92c-2.94,0.11-5.88-0.13-8.81-0.15c-0.05,0.05-0.11,0.09-0.16,0.14
				c-0.07,1.06,0.12,2.13-1.08,2.47c-0.07-0.16-0.24-0.9-0.18-1.33C46.31,867.76,43.24,868.55,41.58,869"/>
			<path fill="#a8dadc" d="M-4.82,914.11c-1.21,3.52-1.16,1.55-4.02,1.97
				c-0.64,1.13-1.06,2.8-1.9,3.7c-1.21-1.94-1.67-5.55-4.59-5.63c-0.57,3.47-1.42,9.14-3.17,12.19c1.28,1.27,3.49,1.17,4.9,2.66
				c1.35,1.43,0.03,4.12,1.73,5.02c1.25,0.67,2.56,0.35,3.51,1.64c1.68,2.28,3.9,3.53,6.33,4.88c0.12,1.3,1.24,2.18,1.51,3.46
				c3.04,1.04,3.39-0.68,5.8-2.62c2.56-2.07,6-0.98,8.87-2.13c0.23,2.18-1.76,4.51-0.65,6.65c0.41,0.79,5.45,3.86,6.36,3.72
				c1.59,6.25,2.44-0.6,3.56-1.85c1.71-1.91,6.81,0.46,9.14-0.29c-0.03-2.44,0.43-3.14-1.48-4.89c-1.73-1.59-2.64-5.13-3.32-7.31
				c-2.03-0.4-3.25,2.39-4.98,1.8c-0.35-1.54-1.2-1.83-1.14-3.64c0.06-1.68,0.55-3.43,0.09-5.11c-0.69-2.49-3.14-4.74-0.67-7.13
				c-2.68-0.53-6.1,0.73-7.66-2.11c-0.94-1.72-1.77-3.56-1.87-5.56c-0.07-1.33,0.79-3.46-0.3-4.58c-0.89-0.91-1.99-0.15-2.68-1.55
				c-0.81-1.63-1.48-2.56-3.13-3.45c-2.99-1.61-6.25-2.51-7.52,1.42c-0.24,0.01-0.5,0.02-0.77,0.01
				C-3.02,908.48-3.83,911.22-4.82,914.11"/>
			<path fill="#e76f51" d="M47.51,923.29c0.14-0.03,0.28-0.05,0.42-0.07
				c0.45-3.34-5.17,0.47-6.71-1.15c-0.57-0.65-0.96-1.39-1.17-2.23c-0.46-1.49-1.72-1.48-2.47-2.66c-0.84-1.32-0.13-3.58-2.39-3.55
				c-0.07-1.86-0.34-3.85-0.1-5.68c4.33-1.62,2.68-3.19,4.22-6.95c1.19-2.91,2.15-7.88,6.4-6.1c0.99,0.41,1.62,1.26,2.64,1.65
				c1.48,0.55,3.08-0.36,4.58,0.04c2.41,0.65,1.1,2.04,1.64,3.8c0.44,1.44,2.28,2.35,3.41,3.15c-1.45,1.8-2.1,0.34-1.25,2.95
				c1.11,3.38,1.1,6.79,3.22,9.82c2.17,3.09,5.48,2.37,4.36-1.6c-1.33-4.72,1.05-7.1,2.5-11.26c1.66-4.76,4.7-9.92-2.65-9.3
				c-2.33,0.19-4.17,0.19-4.23-2.67c-0.08-3.88-3.52-3.51-6.51-3.35c-0.25,0.64-0.72,0.93-1.32,1.15c-2-1.88-4.36-8.43-7.24-8.36
				c-2.86,0.07-8.09-2.92-8.99,1c-0.45,1.99,0.49,6.76-2.16,7.5c-1.86,0.52-6.86-0.32-6.29,2.96c1.21,0.38,1.93,3.43,0.52,3.93
				c-1.78,0.63-3.51-0.09-5.05,1.51c-4.09,4.25,5.28,7.08,2.26,12.05c-1.46,2.4-1.01,3.8-0.84,6.45c0.19,2.99-2.36,3.47-3.79,5.48
				c-1.66,2.34,0.56,4.33,1.17,6.55c0.46,1.67-0.03,3.42-0.09,5.11c-0.06,1.8,0.79,2.09,1.14,3.64c1.73,0.58,2.95-2.21,4.98-1.8
				c0.68,2.18,1.59,5.72,3.32,7.31c1.98,1.82,1.35,2.52,1.47,5.01c1.08,0.38,2.34,0.68,3.49,0.59c1.55-0.13,0.44,1.18,1.18,1.84
				c1.15,1.04,6.11,2.41,7.73,2.62c-0.22-0.18-0.43-0.38-0.63-0.62c2.02-1.15,5.69-3.36,7.21-5.06c2.08-2.32,1.54-6.1,1.44-8.94
				c-0.45,0.07-1.14-0.22-1.59-0.14c0.9-2.28,0.47-5.33,0.53-7.93C48.72,928.58,47.42,926.96,47.51,923.29"/>
			<path fill="#cdb4db" d="M-15.38,874.24c-1.71-0.13-5.34,0.44-7.02,0.91
				c-2.49,0.7-2.42,2.75-3.68,4.58c-5.65,0.14-5.81,3.25-6.39,7.79c-0.25,1.95-9.34,0.16-10.92,0.43c-4.16,0.72-5.32,7.6-6.01,10.74
				c-0.56,2.56-2.16,1.65-4.05,2.13c-1.14,0.29-3.63,4.66-4.76,1.85c-0.7,2.86-1.49,6.7-0.09,9.46c1.48,2.91,2,3.82,1.43,7.08
				c-0.54,3.12,2.76,1.55,4.35,1.69c3.15,0.28,5.46,2.58,8.74,2.46c0.41-1.99-1.11-3.02-0.26-5.43c0.55-1.55,1.73-4,3.72-2.48
				c1.57,1.2,1.71,4.29,1.65,6.07c-0.05,1.88-1.32,4.28-1.12,5.95c4.2,0.37,6.17,3.93,10.38,3.78c2.29-5.45,5.21-2.38,9.72-3.89
				c2.71-0.91,3.95-10.66,4.37-13.2c2.92,0.08,3.38,3.69,4.59,5.63c0.84-0.9,1.26-2.57,1.9-3.7c0.88-0.13,2.02,0.38,2.83,0.15
				c1.23-0.36,1.88-4.03,2.19-5.03c0.75-2.39,2.59-11.52-2.17-11.21c-4.75,0.31-3.17-4.13-7.03-5.52c-3.81-1.38-4.05-6.54-2.8-9.88
				c1.98-1.65,2.72-4.15,3.57-6.48c1.7-4.62-1.81-1.87-2.63-4.33C-15.01,873.92-15.17,874.08-15.38,874.24"/>
			<path fill="#90e0ef" d="M-42.4,813.22c-0.17,0.99-1.31,4.4-1.91,5.22
				c-0.81,1.09-3.39,0.34-3.65,1.87c-1.64,0.24-3.27-0.79-4.92-0.38c-2.06,0.51,0.07,2.71,0.26,3.76c0.6,3.24,0.58,9.46-4.44,6.71
				c0.16,0.64,0.23,1.24,0.06,1.71c-6.59-0.04-10.26,8.85-1.48,8.55c-0.01,0.28,0.09,0.65,0.06,0.92c1.32,0.67,2.1,2.54,3.41,0.84
				c0.03-0.23,0.05-0.44,0.09-0.66c2.61-0.58,3.53,0.33,5.94,0.64c0.07,2.13-0.31,2.51-1.77,3.72c-0.17,1.83,0.26,3.61,0.03,5.43
				c-1.22,0.05-2.88-0.38-3.94,0.49c-1.13,0.91-0.81,2.6-2.36,3.19c-0.39,1.78,0.47,3.51,2.33,3.79c0.26,0.67,0.37,1.58,0.31,2.45
				c2.18,1.37,2.21-1.07,2.8-2.59c2.54-0.1,5.06-0.08,7.52-0.8c2.45-0.72,5.1,0.26,7.52-0.64c-0.02-0.8,0.16-1.67,0.39-2.41
				c1.81-0.91,1.87-0.25,2.89-2.08c0.68-1.24,2.1,0.92,2.88,0.94c0.08-3,0.25-5.98,0.47-8.98c0.27-3.6-1.11-7.33-0.67-10.79
				c2.52-0.03,4.75-2.19,6.22-4.05c0.75-0.94,0.73-2.26,0.65-3.38c-0.13-1.8,1.29-1.85,1.71-3.37c3.71-1.26,5.83,3.29,9.31,3.1
				c3.06-0.17,6.15-4.28,7.42-6.72c-1.85-2.12-0.94-5.38-4.1-6.25c-2.88-0.79-1.8-4.1-5.27-3.43c-2.46,0.48-4.12-0.13-4.86-2.57
				c-0.41-1.36-0.73-2.16-1.87-3.05c-1.98-1.55-0.06-1.96,0.15-3.39c0.16-0.11,0.32-0.21,0.49-0.3c-0.75-1.14-2.38-1.27-3.44-1.96
				c-1.57-1.02-2.36-3.6-4.67-2.88c-3.57,1.11-4.81,2.49-8.76,2.15c-3.62-0.31-5.62-0.11-4.75,3.71c1.04,4.53-1.46,1.52-2.89,4.17
				C-43.96,807.76-41.99,810.79-42.4,813.22"/>
			<path fill="#b5e48c" d="M-76.01,779.82c-0.22,2.23,1.53,3.37,3.54,3.56
				c1.32,0.13,2.87,0.1,4.04-0.63c0.86-0.54,1.16-1.75,2.44-1.41c0.12,4.03-0.42,5.1,3.85,6.24c0.72-2.4,4.44-5.88,4-8.29
				c-1.57-0.42-3.97-4.07-1.39-4.63c1.53-3.23,0.85-5.72,4.93-5.88c0.7-3.72,1.49-6.86,1.86-10.64c2.55-1.07-1.13-4.6-2.34-5.16
				c-3.23-1.51-8.04-0.71-11.52-1.04c0.01-0.37-0.01-0.67-0.05-0.94c-2.53-0.04-3.26-0.1-5.61,1.28c-1.77,1.04-4.71,1.93-6.76,1.59
				c0.11-0.49-0.15-1.2-0.03-1.69c-5.45-1.08-8.67,4.35-13.35,3.93c1.93,3.24-1.88,2.98-4.11,3.65c0.31,2.17-1.51,2.05-2.81,2.86
				c1.41,0.43,5.15-0.49,4.97,2c-0.13,1.83,3.69,0.98,3.13,3.71c0.82,0.13,1.59,0.51,1.74,1.31c4.21,0.81,1.74,4.6-0.08,6.16
				c-4.07,3.48,0.53,6.5,0.9,10.39c2.42,0.39,7.07-3.48,9.79-2.7C-78.48,781.23-77.66,779.45-76.01,779.82"/>
			<path fill="#fca311" d="M-16.75,742.45c-1.55,0.07-3.94,0.54-5.24-0.6
				c-1.36-1.19,0.4-3.37-0.92-4.48c-3.83-3.22-4.92,6.85-5.41,7.57c-0.85-0.73-1.17-2.73-2.41-2.85c-0.38-2.23-4.7-2.49-6.47-2.6
				c-0.64,1.3-0.69,1.63-0.36,2.22c2.77,1.42,3.34,2.72,4.69,5.35c1.27,2.47,3.04,0.53,4.72,2.14c1.52,1.46,4.37,1.42,2.77,3.96
				c-1.54,2.44-3.48,2.69-6.21,2.42c-0.06-1.51-0.01-2.74-0.48-4.19c-3.14-0.84-0.94,8.56-2.34,9.94c-1.04,1.03-5.22,1.77-4.46,3.7
				c1.09,2.78,3,3.41,5.32,4.86c0.13,4.49-1.02,8.91-0.88,13.47c2.59,0.94,5.14,1.43,7.83,0.44c2.4-0.88,3.97-2.85,6.82-2.62
				c1.47-3.2,12.27,1.35,9.22-4.43c2.44-0.13,4.97,0.29,7.33-0.53c2.51-0.87,3.79-3.3,6.03-4.56c4.07-2.28,10.21-1.06,12.61-5.96
				c0.16-1.82-2.04-0.91-2.07-2.61c-3.36-1.12-5.22-5.08-8.61-5.53c-2.62-0.35-8.93-0.36-7.95-4.93c-0.23-0.03-0.45-0.04-0.68-0.09
				c-0.05-1.32,0.67-3.96-1.41-3.79c0.06-1.14,0.31-2.22,0.27-3.42c-3.17-0.69-3.52,1.4-3.7-2.85c-0.96-0.09-1.97-0.07-2.94-0.15
				c-0.01-0.16-0.01-0.32-0.01-0.48C-13.82,741.59-16.32,741.38-16.75,742.45"/>
			<path fill="#c4b5fd" d="M-5.06,672.48c1.95,0.73,2.95-1.41,4.96-0.93
				c0.77,2.03-0.22,4.23,0.34,6.3c0.51,1.85,2.39,2.03,3.18,3.59c0.23,0.45-1.85,1.89-1.71,2.96c0.23,1.76,3,2.1,4.36,2.12
				c0.09,0.53-0.04,1.21-0.31,1.67c-2.4-0.08-4.34,1.56-6.75,1.65c-0.29,3.21-0.54,4.21,2.56,4.88c0.08,2.63-1.73,5.49-2.22,8.1
				c-0.47,2.54,1.27,7.18,0.04,9.31c-1.45,2.5-5.21,0.94-7.16,2.74c-2.77,2.54,1.26,6.86,2.76,9.01c2.62-1.23,5.7-0.38,8.35-1.39
				c3.39-1.28,7.61-2.2,10.5-4.33c2.44-1.8,5.07-0.3,7.68-1.16c1.3-0.43,1.92-1.65,2.27-2.87c0.67-2.34,3.09-0.8,4.68-1.06
				c0.48-1.03,0.89-2.29,1.9-2.96c2.74,1.45,5.31,3.56,7.3,5.92c2.67,3.16,4.01,2.51,7.74,3.4c0.26-0.07,0.52-0.13,0.78-0.21
				c-0.78-0.23-1.59-0.41-2.45-0.49c-0.84-4.96,6.06-2.37,8.8-3.33c0.47-1.31,1.94-4.02,3.62-3.86c0.26-0.9,0.11-2.11,1.06-2.48
				c0.39-1.49-0.41-2.45-1.87-2.55c0.88-2.02-0.8-4.13-0.27-6.19c0.95-0.04,1.93,0.04,2.88,0c0.56-2.69-2.57-4.63-0.84-7.27
				c1.94-2.96,1.93-5.89,2.77-9.28c1.05-4.26-1.21-2.64-3.88-4.23c-2.93-1.74,0.36-5.34,2.61-5.02c0.88-6.16,9.67-12.17,15.15-12.38
				c0.92-2.98-4.2-3.27-5.98-3.36c-1.59-0.08-3.23,0.1-4.8-0.11c-2.11-0.28-2.74-2.07-5.08-2.2c-0.01-0.05-0.01-0.1-0.02-0.15
				c-2.47,0.06-4.85-0.49-6.63-2.26c-2.35-2.33-4.99-1.86-7.59-3.45c-2.43-1.48-7.66-6.1-7.08,0.02c-1.48,0.42-2.23,0.06-3.07-1.11
				c-1.2-1.67-3.44-1.56-5.29-1.54c-4.71,0.04-7.31-1.71-9.52-5.72c-1.87-0.09-3.51-1.15-5.42-0.94c-2.56,0.28-2.82,2.26-4.32,3.95
				c-1.04,1.17-0.29,4.11-2.06,4.29c-1.95,0.2-3.61-1.37-5.57-1.24c-0.35,1.22,0.42,2.16,0.74,3.26c0.48,1.67-0.79,2.67-0.97,4.21
				c-0.25,2.13,0.36,5.67,2.81,6.38c0,1.34-1.34,2.12-1.53,3.41c-2.38-1.42-3.56-3.5-6.65-3.38c-3.25,0.13-5.6-1.82-8.81-2.47
				C-13.17,664.36-9.68,670.74-5.06,672.48"/>
			<path fill="#ffafcc" d="M-105.18,841.4c1.19,2.63,0.59,5.43,3.66,7.12
				c2.8,1.54,6.49,2.01,9.61,2.29c0.09,2.52-0.3,5.03,1.09,7.3c1.22,1.99,3.58,3.28,4.45,5.48c0.95,2.42-0.09,5.07,0.65,7.53
				c0.84,2.79,2.99,2.5,5.28,3.26c0.7-2.04,2.59-3.86,3.46-6c1.08-2.66,2.43-3.3,4.38-0.99c2.2,2.61,4.56,1.32,6.38-0.99
				c2.3-2.92-1.81-3.17-1.26-5.44c2.11,0.34,2.16-2.31,4.04-2.13c1.75,0.16,3.37,2.77,4.82-0.13c2.7-0.54,2.4,2.72,4.23,2.77
				c0.05-0.87-0.05-1.78-0.31-2.45c-1.85-0.28-2.72-2.01-2.33-3.79c1.15-0.44,1.31-1.46,1.78-2.43c0.85-1.74,2.98-1.19,4.52-1.26
				c0.23-1.82-0.2-3.6-0.03-5.43c1.46-1.21,1.84-1.59,1.77-3.72c-2.4-0.32-3.33-1.23-5.94-0.64c-0.04,0.22-0.06,0.44-0.09,0.66
				c-1.31,1.7-2.09-0.17-3.41-0.84c0.03-0.27-0.07-0.65-0.06-0.92c-8.78,0.3-5.12-8.59,1.48-8.55c0.17-0.46,0.1-1.06-0.06-1.71
				c-1.56-0.85-1.65-2.64-2.87-3.77c-1.34-1.24-4,0.16-5.46-1.27c-1.89-1.84,0.13-5.65-1.63-7.2c-1.61-1.42-4.29-1.99-4.32-4.63
				c-0.8-0.08-1.64-0.06-2.43-0.14c0.38-3.39-2.19-2.81-4.45-3.12c0.08-0.33-0.11-0.85-0.03-1.18c-1.43,0.09-3.13-0.54-4.2-1.55
				c-0.12,2.05-0.06,2.68-1.36,4.28c-1.52,1.88,0.23,4.48,0.04,6.59c-1.32-0.2-2.14,1.04-3.46,0.65c-0.04-0.96,0.04-1.97,0-2.93
				c-1.73-0.29-3.52,0.34-5.22,0.62c-0.15,1.05-0.43,2.35,0.88,2.53c0.26,1.39-1.5,1.14-1.24,2.62c0.25,1.44,1.74,1.66,2.82,2.21
				c3.53,1.76-1.36,5.36-1.64,6.86c-2.1,0.08-4.26-0.03-6.3-0.58c-1.49-0.4-2.14-3.21-3.83-2.86c-1.5,2.98,2.57,3.64,2.01,6.73
				c-1.2,0.04-2.33-0.55-3.52-0.5c-1.79,0.08-1.88,1.62-3.23,2.41c-0.11,1.18-0.1,2.39-0.13,3.58
				C-106.05,840.16-105.51,840.67-105.18,841.4"/>
			<path fill="#38bdf8" d="M8.53,794.79c-0.81-0.18-1.71-0.13-2.44,0.19
				c-0.47,1.48-0.13,2.96-0.14,4.46c-0.01,1.54-1.16,2.88-0.85,4.44c1.02,0.77,4.28,2.88,0.72,2.46c-2.09-0.24-1.76,3.16-2.95,4.31
				c-1.12,1.08-1.6-0.1-2.12,1.9c-0.39,1.48-0.53,2.72-1.58,3.94c-0.91,1.05-2.89,5.01-4.47,3.19c-1.27,2.45-4.37,6.55-7.42,6.72
				c-3.48,0.2-5.59-4.36-9.31-3.1c-0.42,1.52-1.84,1.57-1.71,3.37c0.08,1.12,0.1,2.44-0.65,3.38c-1.48,1.86-3.7,4.02-6.22,4.05
				c-0.36,2.9,0.91,5.97,0.78,8.95c-0.15,3.61-0.48,7.2-0.58,10.81c0.87,0.14,1.79-0.33,2.73-0.15c0.16,4.16-0.18,8.22,4.32,9.75
				c2.22,0.76,3.02,3.11,3.39,5.17c0.44,2.5,2.26,2.44,4.29,3.15c1.2-0.21,0.88-0.89,1.73-1.22c1.31-0.51,3.07-0.54,4.45-0.92
				c0.59-2.07,2.36-1.58,4.06-1.65c1.23-4.4,5.75-0.6,7.87-3.06c0.22-1.17,0.6-2.16,1.62-2.87c0.57-0.04,1.14-0.05,1.72-0.04
				c0.35-0.49,0.7-0.99,1.05-1.49c-0.43-5.2,5.13-8.74,6.51-13.15c0.89-2.84,0.19-5.91,1.17-8.65c0.97-2.72,3.9-3.81,6.11-5.31
				c0.02-0.26,0.02-0.51,0.01-0.75c-2.08,0.36-2.06-1.35-2.37-2.82c0.22-0.07,0.45-0.04,0.68-0.06c0.4-0.67,0.39-0.58,1.03-0.98
				c0.14-1.37,1.25-2.08,2.57-1.93c0.64-2.44-1.21-1.65-2.69-1.53c-2.18,0.18-2.84-1.79-4.67-2.43c0.14-1.82-0.77-1.9-1.87-2.93
				c-1.51-1.41-1.06-4.34-0.71-6.12c0.36-1.82,0.76-5.81,3.13-5.46c0.32-3.6,1.04-7.06,1.28-10.66c-1.42-0.13-3.23,0.24-3.8-1.49
				C12.11,795.98,8.18,796.66,8.53,794.79"/>
			<path fill="#fbbf24" d="M-32.61,852.52c-0.6,0.17-0.91,0.57-0.93,1.2
				c-0.41,1.34-1.62,0.78-2.61,1.28c-0.24,0.74-0.42,1.61-0.39,2.41c-1.93,0.72-4.05,0.24-6.04,0.39c-3.02,0.23-5.91,0.94-8.99,1.06
				c-2.51,6.51-3.01-0.99-7.03-0.18c-1.46,2.9-3.07,0.3-4.82,0.13c-1.87-0.18-1.92,2.48-4.04,2.13c-0.55,2.27,3.56,2.52,1.26,5.44
				c-2.72,3.45-4.64,2.66-7.31-0.09c-2.23-2.28-3.69,2.69-4.17,4.08c-0.44,1.25-1.31,1.92-2.13,2.93c-1.46,1.79-0.83,4.65-1.02,6.76
				c-0.8,0.04-1.64-0.03-2.44,0.01c-0.41,1.79,0.7,2.67,1.79,3.85c1.64,1.78,1.5,4.22,1.97,6.44c0.76,0.66,4.22,1.79,5.18,2.2
				c2.4,1.03,3.92-0.84,3.38-3.15c3.11-0.56,4.3,2.72,4.4,5.05c1.38,0.13,2.81,0.06,4.19,0.18c0.95,2.14,2.45,4.53,3.65,6.57
				c1.92,3.25,1.77,2.03,4.26,0.11c1.9-1.46,4.42,0.46,5.09-2.64c0.32-1.46-0.38-3.03,0.49-4.4c0.68-1.07,1.75-1.5,2.31-2.75
				c3.11-7,8.43-1.02,13.66-3.3c1.05-0.45,0.45-3.88,0.69-4.77c0.75-2.83,3.51-3.68,6.17-3.74c0.86-1.25,1-3.09,2.33-3.99
				c1.56-1.06,6.49-1.64,8.36-1.5c2.61-2.04-1.11-2.64-2.64-3.09c-2.46-0.72-1.91-4.21-3.22-5.99c-1.58-2.14-4.54-1.67-5.56-4.33
				c-0.87-2.24-0.77-4.76-0.86-7.12c-0.32-0.06-2.4,0.15-2.74,0.15C-31.18,853.74-31.89,852.49-32.61,852.52"/>
			<path fill="#34d399" d="M22.64,755.79c-1.1,2.22-2.97,3.11-4.16,5.15
				c-0.96,1.65-0.39,5.07-3.1,5.15c0.03-0.14,0.05-0.26,0.06-0.37c-2.32,4.74-7.32,3.28-11.19,5.2c-2.4,1.2-3.83,3.2-6.01,4.62
				c-2.63,1.71-5.84,1.08-8.78,1.24c3.05,5.79-7.75,1.24-9.22,4.43c-1.9-0.15-3.92,0.65-5.39,1.77c-2.76,2.1-6.26,1.49-9.26,0.41
				c0.14,4.35-0.83,3.63-3.94,5.88c-2.96,2.15-6.2,3.05-8.61,5.7c0.53,2.5-1.4,3.01-1.35,5.07c0.04,1.95,1.98,4.3,3.04,5.84
				c0.82-1.53,4.47-0.33,3.26-3.26c-1.2-2.92-1.03-4.83,2.63-4.74c3.71,0.1,5.7,0.5,9.01-1.34c2.37-1.33,3.44-0.66,5.1,1.2
				c1.22,1.36,3.54,1.47,4.51,2.96c-0.17,0.09-0.33,0.19-0.49,0.3c-0.18,1.23-1.76,0.93-0.9,2.56c0.61,1.14,1.88,1.33,2.27,2.68
				c0.7,2.41,1.29,4.04,4.16,3.93c3.98-0.16,2.3,0.45,4.9,2.63c1.16,0.97,2.91,0.62,3.63,2.19c0.5,1.09,0.54,2.29,1.07,3.4
				c3.1,6.46,6.43-7.08,8.11-7.37c2.59-0.45,1.18-3.73,2.99-4.58c0.69-0.32,1.73,0.42,2.31-0.08c1.44-1.25-1.76-2.12-2.21-2.46
				c-0.31-1.57,0.83-2.91,0.85-4.44c0.01-1.5-0.32-2.98,0.14-4.46c0.73-0.32,1.63-0.38,2.44-0.19c-0.35,1.87,3.58,1.19,4.67,1.48
				c-0.33-1.01-0.11-2.34-0.02-3.37c1.2-0.02,1.45-1.5,1.85-2.41c1.95,2.27,3.41,5.94,7.1,4.62c2.88-1.03,4.49-0.32,7.1,0.8
				c1.32,0.56,4.82-2.64,5.61-3.69c2.99-3.93-1.09-3.58-1.52-6.36c-0.5-3.3,0.56-5.57-2.18-8.02c-0.95-0.85-5.22-4.75-4.89-5.93
				c0.28-1.01,2.22-0.96,2.77-1.85c0.67-1.08,0.6-2.67,0.71-3.88c0.3-3.32,1.19-3.77,4.27-3.88c0.2-1.23-0.28-2.27-0.4-3.44
				c-3.92-1.02-2.96-6.19-1.51-8.79C29.71,750.56,23.71,753.61,22.64,755.79"/>
			<path fill="#fb7185" d="M-57.92,752.45c1.35,0.13,9.1,4.04,5.17,5.69
				c-0.38,3.79-1.17,6.92-1.86,10.64c-4.08,0.16-3.4,2.65-4.93,5.88c-2.58,0.55-0.17,4.21,1.39,4.63c0.44,2.41-3.28,5.89-4,8.29
				c2.7,0.76,5.54,0.39,8.28,0.89c-0.3,2.02,1.58,3.27,3.34,3.52c2.31,0.33,2.95-0.02,3.58,2.98c2.67-2.94,7.75-5.73,11.59-7.16
				c1.83-0.68,0.95-4.68,0.9-6.17c-0.12-3.97,1.04-7.8,0.93-11.72c-1.84-1.15-3.57-1.64-4.7-3.63c-1.62-2.86,0.58-2.93,2.83-4.21
				c2.45-1.39,0.51-11.42,3.33-10.66c0.47,1.46,0.41,2.69,0.48,4.19c2.09,0.21,4.11,0.35,5.54-1.48c2.08-2.65,1.02-2.68-1.22-4.13
				c-1.29-0.83-4.07-0.92-4.94-1.89c-2.2-2.48-2.01-4.67-5.35-6.37c0.94,1.64,1.77,2.78,1.6,4.75c-1.59,0.05-3.19,0.11-3.99-1.28
				c-2.46,0.03-4.51-1.31-7.17-1.19c-1.01,2.09-7.09-1.24-8.37-2.25c-2.65,8.82-2.19-1.53-5.63-0.88c-0.05,1.06-0.08,2.14-0.41,3.18
				c-3.88,0.21-0.92,7.02-5.14,6.94c0.04,0.26,0.06,0.57,0.05,0.94C-63.71,752.21-60.85,752.17-57.92,752.45"/>
			<path fill="#a78bfa" d="M-119.53,842.03c4.29,0.11,8.52-0.8,12.8-0.96
				c0.15-1.64,0.05-3.29,0.21-4.92c0.92-0.54,1.17-1.62,2.06-2.13c1.44-0.82,3.19,0.27,4.69,0.22c0.56-3.1-3.51-3.76-2.01-6.73
				c1.41-0.29,2.26,1.85,3.18,2.55c1.63,1.24,5.05,0.96,6.95,0.89c0.39-2.1,4.49-3.55,2.23-6.42c-0.73-0.93-2.22-0.81-3-1.74
				c-1.54-1.83,1.11-2.02,0.83-3.53c-1.31-0.18-1.03-1.48-0.88-2.53c1.71-0.29,3.49-0.91,5.22-0.62c0.04,0.96-0.04,1.96,0,2.93
				c1.32,0.39,2.14-0.85,3.46-0.65c0.18-1.96-1.03-3.81-0.52-5.77c0.55-2.11,1.71-2.6,1.85-5.1c-2-1.88-0.65-5.21,1.87-5.85
				c0.59-5.96,0.67-12.3,1.72-18.18c-2.72-0.78-7.37,3.09-9.79,2.7c-0.36-3.77-4.03-5.74-1.73-9.46c1.04-1.69,6.44-6.02,0.92-7.09
				c-0.15-0.81-0.93-1.19-1.74-1.31c0.56-2.72-3.26-1.87-3.13-3.71c0.18-2.49-3.56-1.56-4.97-2c-0.54,0.34-0.98,0.83-1.15,1.72
				c-4.53,0.63-8.33-1.66-12.2-1.77c-0.59-0.02-1.79-1.93-2.24-2.32c-2.33-2.05-4.23-4.73-7.54-4.89c0.86,1.36,1.21,2.78-0.5,3.43
				c1.11,1.7-0.94,5.28-1.1,7.26c2.71,0.76,4.46,2.41,3.78,5.45c-0.8-0.16-1.28,0.12-1.42,0.84c-0.46,1.25-2.89,1.13-3.88,1.13
				c-0.37,2.79,3.91,1.48,2.78,4.64c-0.18,0.03-0.37,0.06-0.56,0.1c-0.19,1.93,0.8,5.71-1.17,6.97c-1.94,1.25-1.36,2.17-1.57,4.21
				c-2.01,0.4-2.94-1.7-4.85-2.07c0.19,0.57-0.01,1.64,0.15,2.28c-4.17,0.15-7.79-0.29-11.64,0.79c-0.68,7.63,6.25,12.45,8.4,19.19
				c2.57,8.06,1.48,17.31,1.64,25.64C-129.47,839.83-124.94,841.9-119.53,842.03"/>
			<path fill="#2dd4bf" d="M-78.26,809.07c-0.08,0.33,0.11,0.85,0.03,1.18
				c2.26,0.31,4.83-0.27,4.45,3.12c0.8,0.08,1.64,0.06,2.43,0.14c0.02,2.04,1.91,3.14,3.44,4.06c2.08,1.25,1.23,3.7,1.61,5.8
				c0.37,2.03,1.59,2.65,3.51,2.79c2.87,0.21,2.97,0.67,4.41,3.03c0.84,1.39,3.1,2.27,4.63,1.68c1.81-0.7,1.34-3.47,1.27-4.94
				c-0.1-1.97-0.75-2.91-1.34-4.58c-0.9-2.56,5-0.92,5.84-1.04c0.26-1.53,2.84-0.78,3.65-1.87c0.6-0.81,1.74-4.22,1.91-5.22
				c0.64-3.81-3.4-7.78-5.04-10.88c-1.75-3.29,1.4-5.07,0.14-8.69c-1.09-3.14-7.23-0.63-6.56-5.18c-3.14-0.57-6.31-0.45-9.44-1.15
				c-3.6-0.8-2.6-3.09-2.69-5.98c-1.36-0.35-3.54,2-5.29,2.08c-2.3,0.1-5-0.8-4.72-3.59c-3.82-0.86-4.32,19.17-4.59,21.84
				C-85.95,803.04-82.76,809.37-78.26,809.07"/>
			<path fill="#fcd34d" d="M-117.08,758.43c1.33,0.9,4.29,4.99,5.83,4.02
				c0.01-0.01,3.53,1.02,4.11,1.06c2.55,0.18,3.96,1.21,6.67,0.83c0.46-2.49,4.35-1.84,3.96-4.58c2.23-0.67,6.04-0.41,4.11-3.65
				c4.67,0.42,7.9-5,13.35-3.93c-0.12,0.49,0.14,1.2,0.03,1.69c3.97,0.67,8.11-4.26,11.43-3.11c4.98,1.74,2.23-6.49,6.08-6.71
				c0.34-1.03,0.36-2.11,0.41-3.18c3.43-0.66,2.97,9.69,5.63,0.88c-2.84-2.22,1.79-7.13-0.81-9.22c-1.47-1.18-2.24-1.57-3.29-3.25
				c-1.22-1.93-2.69,0.58-4.24,0.18c-0.64-1.69,1.03-6.78-1.85-6.31c-0.05-0.72-0.12-1.47-0.27-2.18c-1.16-0.29-5.03-3.05-5.49-4.12
				c-1.39-3.26-2.73-0.42-4.88-2.15c-3.06-2.49,5.95-4.69-2.05-6.21c-0.09-2.31-0.52-5.5,0.83-7.54c1.82-2.74,4.23,2.4,6.04,2.55
				c1.71,0.14,3.23-0.18,4.27-1.65c0.17-0.77,0.53-1.43,1.09-1.98c1.09-0.66,2.13,0.24,2.76-1.32c0.56-1.38,0.14-3.45,2.27-3.63
				c3.36-0.27,2.47-2.9,4.54-4.84c0.26,0.15,0.54,0.33,0.82,0.52c0.11-2.35-1.15-1.69,1.49-3.13c-1.34-0.47-2.66-1.13-3.91-1.71
				c-0.69-1.76-0.87-3.4-0.89-5.14c-1.16,0.07-2.26,0.25-3.27,0.61c0.27,1.32,1.33,3.3-0.37,4.1c-1.58,0.75-4.28,1.03-5.45-0.55
				c-3.02-4.1-8.33-4.58-13.03-4.27c1.26,0.61,0.68,3.64,0.57,4.94c-0.61-0.08-1.33,0.09-1.94,0.02c-0.26,2.94-1.14,5.71-4.54,5.9
				c-1.66,0.1-5.58,0.68-6.31,2.51c-3.88-0.38-6.14,2.51-3.13,5.17c-2.25-0.08-4.27,1.06-6.75,0.84c-0.08-1.85,0.01-3.63-2.12-4.28
				c-1.52-0.46-4.71-0.58-5.63,1.12c-1.29,2.4,0.62,2.24-2.83,2.67c-2.19,0.28-2.21,1.55-2.38,3.41c-2.3,0.47-2.68-2.13-4.9-2.05
				c-0.26,3.22,6.33,7.24,4.25,9.59c-1.48,1.68-2.61,1.06-1.88,4.21c0.36,1.56,2.13,3.77,3.03,1.13c4.88-0.85,6.45,7.7,6.17,10.85
				c-2.68,0.1-4.81-0.2-7.24,0.9c-1.08,3.72,2.83,2.54,4.77,3.91c2.76,1.95-1.88,6.63-4.05,6.88c-0.13,1.37-0.06,2.8-0.18,4.17
				c-2.27,0.08-3.58-1.34-5.67-1.07c0.02,0.14-0.02,0.5-0.02,0.67c1,0.27,1.52,1.08,1.63,2.06c-3.38-0.74-12.28,0.94-11.04,6.13
				c4.2,0.38,9.24,2.02,9.5,7.45C-120.15,757.77-118.59,757.4-117.08,758.43"/>
			<path fill="#818cf8" d="M-54.26,687.48c-2.64,1.44-1.38,0.77-1.49,3.13
				c1.37,0.91,3.43,2.19,4.06,3.81c0.93,2.41-1.51,3.77-1.8,5.82c-0.24,1.71,1.54,3.76,2.47,5.02c2.05,2.77,2.48,1.65,5.28,1.71
				c0.3,7.92,9.93,7.23,15.36,10.44c3.2,1.9,6.2,3.76,8.18,6.88c2.11,3.32,6.21,2.38,9.28,4.02c0.82-0.61,1.08-1.8,2.14-2.14
				c1.01,0.04,2.02,0.05,3.04,0.05c1.12-0.44,1.63-1.82,2.73-2.34c-1.33-1.9-4.42-5.17-3.62-7.73c0.98-3.09,4.83-1.81,7-3.05
				c2.72-1.56,0.43-5.89,0.67-8.29c0.35-3.36,2.62-6.85,2.53-10.09c-3.11-0.66-2.86-1.67-2.56-4.88c2.41-0.09,4.34-1.73,6.75-1.65
				c0.27-0.46,0.4-1.14,0.31-1.67c-3.04-0.04-6.14-2.11-2.75-4.64c0.78-0.58-2.38-2.56-2.62-2.99c-1.33-2.33,0.11-4.94-0.8-7.33
				c-1.44-0.35-2.35,0.73-3.64,1.02c-1.94,0.44-3.84-1.71-4.92-2.97c-2.63-3.06-4.5-5.73-4.4-9.88c-0.24-0.09-0.47-0.18-0.71-0.27
				c0.05,0.47,0.09,0.95,0.13,1.42c-2.11,0.93-5.64,0-7.95-0.2c-0.79-1.95-3.41-6.34-5.88-5.83c-0.78,1.35-4.48,0.54-5.33-0.38
				c-1.81-1.96-2.72-4.13-5.87-3.67c-0.24,2.73-0.89,5.27-1.17,7.92c-0.3,2.82,2.22,4.88,1.94,7.8c-2.01,0.97-3.12,2.74-2.02,4.88
				c1.28,2.49,0.76,3.63,1.02,6.41c0.12,1.28,0.27,5.19-2.55,3.39c-2.17-1.38-0.23-2.88-3.96-2.77c-0.09,1.04-0.08,2.13-0.13,3.18
				c-3.94,0.14-9.13-1.22-13.5-0.96c0.02,1.74,0.2,3.38,0.89,5.14C-56.92,686.35-55.59,687.02-54.26,687.48"/>
			<path fill="#f472b6" d="M45.42,719.42c-2.8-0.66-4.6,0.17-6.72-2.2
				c-2.46-2.76-5-5.36-8.32-7.12c-1.01,0.67-1.42,1.93-1.9,2.96c-1.6,0.26-4.02-1.29-4.68,1.06c-0.5,1.75-1.54,2.98-3.46,3.06
				c-1.84,0.08-3.83-0.49-5.57,0.38c-2.62,1.31-4.14,2.16-7.1,2.83c-2.12,0.49-3.63,2.14-5.84,2.45c-2.23,0.31-4.73,0.04-6.83,1.02
				c-1.76,0.83-1.94,2.72-4.23,2.33c-2.36-0.4-2.15,0.97-3.67,2.1c3.37,1.8,4.63,10.33,4.17,13.86c-0.58,0.02-1.7-0.15-2.91-0.3
				c0,0.16,0,0.32,0.01,0.48c0.96,0.09,1.97,0.07,2.94,0.15c0.17,4.25,0.53,2.16,3.7,2.85c0.04,1.2-0.21,2.29-0.27,3.42
				c2.08-0.17,1.36,2.47,1.41,3.79c0.23,0.05,0.45,0.06,0.68,0.09c-0.98,4.57,5.33,4.58,7.95,4.93c3.39,0.45,5.25,4.41,8.61,5.53
				c0.02,1.65,2.43,1.01,2.01,2.98c1.77-0.05,2.19-1.7,2.49-3.11c0.58-2.76,2.74-3.06,4.03-5.24c2.03-3.4,5.92-6.8,10.18-7.66
				c4.45-8.01,18.31-1.5,25.14-1.7c0.5-5.58-2.06-16.01,1.63-20.92c3.09-0.15,5.32,0.41,5.28-3.38c-0.88-0.08-1.8-0.06-2.68-0.14
				c-0.62-1.89-4.05-1.84-5.59-1.95c-2.74-0.2-5.11-1.08-7.64-2.07C47.18,719.95,46.34,719.64,45.42,719.42"/>
			<path fill="#4ade80" d="M-47.11,744.01c2.65-0.13,4.71,1.21,7.17,1.19
				c0.81,1.38,2.4,1.33,3.99,1.28c0.22-2.73-2.5-4.42-1.25-6.97c1.76,0.11,6.09,0.37,6.47,2.6c1.24,0.12,1.56,2.12,2.41,2.85
				c0.49-0.72,1.58-10.79,5.41-7.57c1.32,1.11-0.43,3.29,0.92,4.48c1.3,1.14,3.69,0.66,5.24,0.6c0.81-2.04,6.48-0.23,8-0.29
				c0.41-3.11-0.72-10.84-3.02-13.04c-3.51-3.35-8.39-1.19-11.13-6.05c-4.6-8.17-22.46-5.82-22.84-16.1
				c-2.79-0.06-3.23,1.06-5.28-1.71c-0.93-1.26-2.71-3.32-2.47-5.02c0.29-2.05,2.73-3.41,1.8-5.82c-0.71-1.84-3.25-3.39-4.88-4.33
				c-1.22,1.15-1.37,4.47-3.26,4.79c-3.1,0.53-2.51,1.13-3.54,3.68c-0.72,1.77-2.95,0.41-3.45,2.23c-0.6,2.23-2.55,2.9-4.67,2.72
				c-1.81-0.15-4.22-5.29-6.04-2.55c-1.35,2.04-0.92,5.23-0.83,7.54c8.01,1.52-1.01,3.72,2.05,6.21c1.43,1.16,3.67-0.86,4.47,1.1
				c0.76,1.84,3.87,4.68,5.89,5.18c0.15,0.71,0.22,1.46,0.27,2.18c2.88-0.47,1.22,4.62,1.85,6.31c1.35,0.35,2.18-1.34,3.5-0.88
				c1.1,0.38,1.32,2.19,2.18,2.89c3,2.45,2.31,3.11,1.92,6.93c-0.36,3.53,1.18,2.81,3.44,4.29
				C-51.51,743.52-48.29,746.46-47.11,744.01"/>
			<path fill="#f97316" d="M26.18,647.92c2.04,0.2,5.14-0.55,6.82,0.99
				c1.29,1.19,1.47,2.31,3.59,1.72c-0.53-5.62,4.01-2.13,6.43-0.45c2.25,1.57,5.2,1.07,7.31,2.97c2.33,2.11,4.25,3.24,7.56,3.16
				c-0.36-2.72,1.92-2.76,4.04-2.75c0.31-3.3,0.32-4.29,3.64-4.41c0.12-1.46,0.05-2.97,0.18-4.43c2.06,0.43,6.59-3.63,7.04-5.62
				c0.68-2.99-3.79-9.49,1.06-9.53c0.11-1.29,0.15-2.64,0.1-3.93c-1.65-0.13-0.91-3.98-0.79-5.28c0.56-0.01,1.11-0.02,1.67-0.04
				c-0.49-0.1-0.32-3.61-1.13-3.69c-1.96-0.21-3.87-0.76-5.82-0.98c-2.33-0.27-1.86,2.57-3.88,2.66c-3.65,0.17-1.83-7.76-1.92-9.77
				c-4.82-0.38-3.6,0.6-5.65,4.06c-1.71,2.9-5.05,3.56-6.65,6.11c-2.93,4.69-10.8-2.91-13.1,4.34c1.38,0.3,2.23,1.3,2.23,2.71
				c-0.01,2.75-0.03,2.52-2.64,2.65c-0.17,2.09,0.61,3.46-1.46,4.69c-2.56,1.53-5.55,1.88-8.21,0.49c0.07-0.6-0.11-1.32-0.03-1.92
				c-0.23-0.01-0.45-0.02-0.68-0.02c-0.15,1.67-1.21,3.96,0.43,5.23c2.1,1.63,1.63,2.91-1.02,3.87c-3.21,1.16-3.4,7.84-6.04,1.5
				c-0.19,0.01-0.36,0-0.55-0.01C20.39,645.32,21.83,647.5,26.18,647.92"/>
		</g>
</svg>